<svg xmlns="http://www.w3.org/2000/svg" id="logo" viewBox="0 0 328.1 142.5">
  <style>
    .st0{fill:#8BCDFF;} .st1{fill:#FFFFFF;} .st2{fill:#1259A7;}
  </style>
  <path id="block" d="M297 67.4l-1.8-5.5-1.8 5.5h-73v25.5h107.7V67.4z" class="st0"/>
  <path id="cost" d="M289.4 71.7v.7c0 .2-.1.3-.1.5 0 .1-.1.2-.2.3-.1.1-.2.1-.2.1h-4.8v15.3c0 .1 0 .2-.1.3-.1.1-.2.2-.3.2-.2.1-.4.1-.6.1-.6.1-1.2.1-1.9 0-.2 0-.4-.1-.6-.1-.1 0-.2-.1-.3-.2-.1-.1-.1-.2-.1-.3V73.3h-4.8c-.1 0-.2 0-.2-.1-.1-.1-.1-.2-.2-.3-.1-.2-.1-.3-.1-.5v-1.5c0-.2.1-.3.1-.5 0-.1.1-.2.2-.3.1-.1.2-.1.2-.1h13.4c.1 0 .2 0 .2.1.1.1.1.2.2.3.1.2.1.3.1.5.1.3.1.6.1.8zm-15.5 11.7c0 .9-.2 1.8-.6 2.6-.4.7-.9 1.4-1.5 1.9-.7.5-1.4.9-2.2 1.1-.9.3-1.8.4-2.7.4-.6 0-1.2 0-1.8-.2-.5-.1-1-.2-1.5-.4-.4-.1-.7-.3-1.1-.5-.2-.1-.4-.3-.6-.4-.1-.2-.2-.3-.3-.6-.1-.3-.1-.7-.1-1v-.8c0-.2 0-.3.1-.5 0-.1.1-.2.2-.3.1-.1.2-.1.3-.1.2 0 .4.1.6.2.3.2.7.4 1 .5.5.2.9.4 1.4.5.6.2 1.2.2 1.9.2.4 0 .9-.1 1.3-.2.3-.1.7-.3.9-.5.3-.2.5-.5.6-.8.1-.3.2-.7.2-1 0-.4-.1-.8-.4-1.1-.3-.3-.6-.6-.9-.8-.4-.3-.8-.5-1.3-.7l-1.4-.7c-.5-.2-1-.5-1.5-.8-.5-.3-.9-.7-1.3-1.1-.4-.4-.7-.9-.9-1.5-.2-.6-.4-1.3-.4-2 0-.8.2-1.6.5-2.4.3-.7.8-1.2 1.4-1.7.6-.5 1.3-.8 2-1 .8-.2 1.6-.3 2.5-.3.5 0 .9 0 1.4.1.4.1.8.2 1.3.3.3.1.7.2 1 .4.2.1.4.2.6.4.1.1.1.2.2.2 0 .1.1.2.1.3v1.7c0 .2 0 .3-.1.5 0 .1-.1.2-.1.3-.1.1-.2.1-.3.1-.2 0-.4-.1-.5-.2-.2-.1-.5-.3-.9-.4-.4-.2-.8-.3-1.2-.4-.5-.1-1-.2-1.5-.2-.4 0-.7 0-1.1.2-.3.1-.6.2-.8.4-.2.2-.4.4-.5.7-.1.3-.2.5-.1.8 0 .4.1.8.3 1.1.3.3.6.6.9.8.4.3.9.5 1.3.7l1.5.7c.5.2 1 .5 1.5.8.5.3.9.7 1.3 1.1.4.4.7.9.9 1.5.2.8.3 1.5.4 2.1zm-14.5-4c0 1.4-.2 2.9-.6 4.2-.3 1.2-.9 2.2-1.7 3.2-.8.9-1.8 1.6-2.9 2-1.3.5-2.6.7-4 .7-1.3 0-2.6-.2-3.9-.6-1-.4-2-1-2.8-1.8-.8-.9-1.3-1.9-1.6-3-.4-1.4-.6-2.9-.6-4.3s.2-2.8.6-4.1c.3-1.2.9-2.2 1.7-3.1.8-.9 1.8-1.6 2.9-2 1.3-.5 2.6-.7 4-.7 1.3 0 2.6.2 3.8.6 1 .4 2 1 2.8 1.8.8.9 1.3 1.9 1.7 3 .4 1.2.6 2.6.6 4.1zm-4 .2c0-.9-.1-1.8-.2-2.7-.1-.7-.4-1.5-.8-2.1-.4-.6-.9-1-1.5-1.3-.7-.3-1.5-.5-2.3-.5-.8 0-1.6.2-2.4.5-.6.3-1.2.8-1.5 1.4-.4.6-.7 1.3-.8 2.1-.2.8-.2 1.7-.2 2.5 0 .9.1 1.9.2 2.8.1.8.4 1.5.8 2.1.4.6.9 1 1.5 1.3.7.3 1.5.5 2.4.5.8 0 1.6-.2 2.4-.5.6-.3 1.2-.8 1.5-1.4.4-.6.7-1.4.8-2.1 0-.9 0-1.7.1-2.6zm-15.9 6.6v.6c0 .1 0 .3-.1.4 0 .1-.1.2-.1.3-.1.1-.1.2-.2.3-.2.2-.4.3-.6.4-.4.2-.7.4-1.1.5-.5.2-1 .3-1.5.4-.6.1-1.2.2-1.9.2-1.2 0-2.4-.2-3.5-.6-1-.4-1.9-1-2.7-1.8-.8-.9-1.3-1.9-1.7-3-.4-1.3-.6-2.8-.6-4.2 0-1.5.2-2.9.6-4.3.4-1.2 1-2.2 1.8-3.2.8-.8 1.7-1.5 2.8-1.9 1.1-.5 2.3-.7 3.6-.7.5 0 1 0 1.5.1s.9.2 1.4.3c.4.1.8.3 1.1.5.3.1.5.3.7.5l.3.3c.1.1.1.2.1.3 0 .2.1.3.1.5v1.5c0 .2 0 .3-.1.5 0 .1-.1.2-.2.3-.1.1-.1.1-.2.1-.2 0-.4-.1-.6-.3l-.9-.6c-.4-.2-.8-.4-1.3-.6-.6-.2-1.2-.3-1.8-.3-1.4 0-2.7.6-3.5 1.8-.4.6-.8 1.3-.9 2.1-.4 1.9-.4 3.8 0 5.6.2.7.5 1.4 1 2 .4.5.9.9 1.5 1.2.6.3 1.3.4 2 .4.6 0 1.2-.1 1.8-.2.4-.1.9-.3 1.3-.5s.6-.4.9-.5c.2-.1.3-.2.5-.2.1 0 .2 0 .2.1.1.1.1.1.1.2 0 .2.1.3.1.5.1.4.1.7.1 1z" class="st1"/>
  <path id="star-white" d="M292.9 69h-7.5l6.1 4.4-2.3 7 6-4.3 6 4.3-2.3-7L305 69h-7.5l-.5-1.7h-3.5z" class="st1"/>
  <path id="stars" d="M227.4 18.6l6-4.4 6 4.4-2.3-7.1 6.1-4.4h-7.5L233.3 0 231 7.2h-7.5l6.1 4.4-2.2 7zM179.7 31l-2.3 7.2h-7.5l6.1 4.4-2.3 7.1 6-4.4 6 4.4-2.3-7.1 6.1-4.4H182l-2.3-7.2zm-8.3 45.2l6 4.4-2.3-7.1 6.1-4.4h-7.5l-2.3-7.2-2.3 7.2h-7.5l6.1 4.4-2.3 7.1 6-4.4zm10.6 23.9l-2.3-7.1-2.3 7.2h-7.5l6.1 4.4-2.3 7.1 6-4.4 6 4.4-2.3-7.1 6.1-4.4H182zm22.7 22.7l-2.3-7.1-2.3 7.1h-7.5l6.1 4.4-2.3 7.1 6-4.4 6 4.4-2.3-7.1 6.1-4.4h-7.5zm30.9 8.3l-2.3-7.1-2.3 7.2h-7.5l6.1 4.4-2.3 7.1 6-4.4 6 4.4-2.3-7.1 6.1-4.4h-7.5zm31-8.3l-2.3-7.1-2.3 7.1h-7.5l6.1 4.4-2.3 7.1 6-4.4 6 4.4-2.3-7.1 6.1-4.4h-7.5zm22.7-22.7L287 93l-2.3 7.2h-7.5l6.1 4.4-2.3 7.1 6-4.4 6 4.4-2.3-7.1 6.1-4.4h-7.5zM281 49.5l6-4.4 6 4.4-2.3-7.1 6.1-4.4h-7.5l-2.3-7.1-2.3 7.2h-7.5l6.1 4.4-2.3 7zM264.4 8.3l-2.3 7.2h-7.5l6.1 4.4-2.3 7.1 6-4.4 6 4.4-2.3-7.1 6.1-4.4h-7.5l-2.3-7.2z" class="st0"/>
  <path id="kidney" d="M72.9 10.3l2.2.3 1.9.7 2.5 1.1 2.7 1.5 1.9 1.4 1.8 1.5 1.4 1.5 2 2.2 1.4 2.2 1.3 2.4 1.2 2.8 1.2 4 .7 3.3.4 3.3.1 2.9-.1 2.3-.4 2.5-.5 2.2-.8 2.3-1 2.1-1.2 1.9-1.6 1.8-1.7 1.4-1.8 1-1.9.8-1.4.4-1.7.2-1.6.1h-1.7l-1.5-.1-.9-.1-1.1-.4-1.3-.7-1.6-.9-.9-.9-1-1.3-.9-1.5-.5-1.6-.3-1.3-.1-1.3v-1.8l.2-2 .3-1.4.5-1.2.6-1 .6-.6.5-.3-.9-.6-.9-.8-1.1-1.2-.7-1.1-.6-1.5-.4-1.2-.1-.8.1-1.1.3-1.4.5-1.5.5-1.1.4-.6-1.4-.1-1.4-.1-1.2-.4-1.2-.6-1.3-1.1-.8-.9-.7-1.3-.7-1.3-.5-1.9V19l.4-1.7.7-1.4 1-1.1 1.4-1.3 1.4-1 1.7-1 2.1-.7 2-.5 1.4-.1 2.1.1z" class="st0"/>
  <path id="dot" d="M196.4 26.9l6-4.4 6 4.4-2.3-7.1 6-4.3h-7.4l-2.3-7.2-2.3 7.2h-7.5l6.1 4.3z" class="st2"/>
  <path id="parenchima" d="M277.3 60.1c0 .2-.1.4-.2.5-.2.1-.4.2-.6.2-.4.1-.8.1-1.1.1-.4 0-.8 0-1.2-.1-.2 0-.4-.1-.6-.2-.1-.1-.2-.3-.2-.5v-2.5c-1 1.1-2.3 2.1-3.7 2.7-1.3.7-2.8 1-4.3 1-1.2 0-2.4-.2-3.6-.5-1-.3-1.9-.8-2.7-1.5-.8-.7-1.4-1.5-1.8-2.4-.4-1-.6-2.1-.6-3.2 0-1.3.3-2.5.9-3.7.6-1.1 1.4-2 2.5-2.6 1.2-.7 2.6-1.3 4-1.5 1.7-.4 3.5-.5 5.3-.5h3.5v-2c0-.9-.1-1.7-.3-2.6-.2-.7-.5-1.3-1-1.8s-1.1-.9-1.8-1.1c-.9-.3-1.8-.4-2.7-.4-1 0-2 .1-3 .4-.8.2-1.6.5-2.4.9-.7.3-1.2.6-1.7.9-.3.2-.6.3-1 .4-.1 0-.3 0-.4-.1l-.3-.3c-.1-.2-.2-.4-.2-.6-.1-.6-.1-1.2 0-1.9.1-.3.2-.6.5-.8.4-.3.8-.6 1.3-.8.7-.4 1.4-.7 2.1-.9.9-.3 1.7-.5 2.6-.7.9-.2 1.9-.3 2.9-.3 1.6 0 3.1.2 4.6.6 1.1.3 2.2 1 3.1 1.8.8.8 1.4 1.8 1.7 2.9.4 1.3.6 2.7.5 4.1l-.1 17zm-4.6-11.5h-3.9c-1.1 0-2.2.1-3.3.3-.8.2-1.6.5-2.3 1-.6.4-1 .9-1.4 1.5-.3.6-.4 1.3-.4 2-.1 1.2.4 2.3 1.2 3.1 1 .8 2.2 1.2 3.5 1.2 1.2 0 2.3-.3 3.4-.9 1.2-.8 2.3-1.7 3.2-2.8v-5.4zM250 60c0 .1 0 .3-.1.4-.1.1-.2.2-.4.3-.2.1-.5.1-.7.2-.4 0-.7.1-1.1.1-.4 0-.8 0-1.1-.1-.2 0-.5-.1-.7-.2-.1-.1-.3-.1-.4-.3-.1-.1-.1-.2-.1-.4V44.8c0-1-.1-1.9-.3-2.9-.2-.8-.5-1.6-.9-2.2-.4-.6-.9-1.1-1.6-1.5-.7-.3-1.5-.5-2.2-.5-1.2 0-2.3.5-3.2 1.2-1.3 1.1-2.5 2.3-3.5 3.6V60c0 .1 0 .3-.1.4-.1.1-.2.2-.4.3-.2.1-.5.1-.7.2-.7.1-1.5.1-2.2 0-.2 0-.5-.1-.7-.2-.1 0-.3-.1-.4-.3-.1-.1-.1-.2-.1-.4V44.8c0-1-.1-1.9-.3-2.9-.2-.8-.5-1.6-.9-2.2-.4-.6-.9-1.1-1.5-1.5-.7-.3-1.4-.5-2.2-.5-1.2 0-2.3.5-3.2 1.2-1.3 1.1-2.5 2.3-3.5 3.6V60c0 .1 0 .3-.1.4-.1.1-.2.2-.4.3-.2.1-.5.1-.7.2-.4 0-.8.1-1.1.1-.4 0-.7 0-1.1-.1-.2 0-.5-.1-.7-.2-.1 0-.3-.1-.4-.3-.1-.1-.1-.2-.1-.4V35c0-.1 0-.3.1-.4l.3-.3c.2-.1.4-.2.6-.2.7-.1 1.3-.1 2 0 .2 0 .4.1.6.2l.3.3c.1.1.1.2.1.4v3.3c1.2-1.4 2.6-2.5 4.1-3.5 1.2-.7 2.6-1.1 4-1.1.9 0 1.9.1 2.8.4.8.2 1.5.6 2.2 1 .6.4 1.2 1 1.6 1.6.5.6.8 1.3 1.1 2 .8-.8 1.6-1.6 2.4-2.3.7-.6 1.4-1.1 2.2-1.5.6-.4 1.3-.6 2-.8.7-.2 1.3-.3 2-.3 1.4 0 2.8.2 4.1.8 1.1.5 2 1.3 2.7 2.3.7 1 1.2 2.1 1.5 3.3.3 1.3.4 2.7.4 4V60zm-45.6 0c0 .1 0 .3-.1.4-.1.1-.2.2-.4.3-.2.1-.5.1-.7.2-.4 0-.8.1-1.1.1-.4 0-.7 0-1.1-.1-.2 0-.5-.1-.7-.2-.2-.1-.3-.2-.4-.3-.1-.1-.1-.2-.1-.4V35c0-.1 0-.3.1-.4.1-.1.2-.2.4-.3.2-.1.5-.1.7-.2.4 0 .7-.1 1.1-.1.4 0 .8 0 1.1.1.2 0 .5.1.7.2.1.1.3.2.4.3.1.1.1.2.1.4v25zm-13.7 0c0 .1 0 .3-.1.4-.1.1-.2.2-.4.3-.2.1-.5.1-.7.2-.4 0-.7.1-1.1.1-.4 0-.8 0-1.1-.1-.2 0-.5-.1-.7-.2-.1-.1-.3-.1-.4-.3-.1-.1-.1-.2-.1-.4V45.4c0-1.2-.1-2.3-.3-3.5-.2-.8-.5-1.6-1-2.2-.4-.6-1-1.1-1.7-1.5-.7-.3-1.5-.5-2.4-.5-1.2 0-2.5.5-3.4 1.2-1.4 1-2.6 2.2-3.6 3.6V60c0 .1 0 .3-.1.4-.1.1-.2.2-.4.3-.2.1-.5.1-.7.2-.4 0-.8.1-1.1.1-.4 0-.7 0-1.1-.1-.2 0-.5-.1-.7-.2-.1 0-.3-.1-.4-.3-.1-.1-.1-.2-.1-.4V22.9c0-.1 0-.3.1-.4.1-.1.2-.2.4-.3.2-.1.5-.1.7-.2.4 0 .7-.1 1.1-.1.4 0 .8 0 1.1.1.2 0 .5.1.7.2.1.1.3.2.4.3.1.1.1.3.1.4v15c1.1-1.3 2.5-2.3 4-3.1 1.2-.6 2.6-1 4-1 1.5 0 2.9.2 4.2.8 1.1.5 2 1.3 2.8 2.3.7 1 1.2 2.1 1.5 3.3.3 1.5.5 3.1.5 4.6V60zM163 56.2v.8c0 .2 0 .4-.1.6 0 .1-.1.3-.2.4-.1.2-.3.4-.4.5l-1.2.9c-.6.4-1.2.7-1.9.9-.7.3-1.5.5-2.3.7-.8.2-1.7.3-2.5.2-1.6 0-3.3-.3-4.8-.9-1.4-.6-2.6-1.5-3.5-2.6-1-1.2-1.7-2.7-2.1-4.2-.5-1.9-.8-3.8-.7-5.8 0-2.2.3-4.3.9-6.4.5-1.6 1.4-3.1 2.5-4.4 1-1.1 2.3-2 3.7-2.5 1.5-.6 3-.8 4.6-.8.8 0 1.6.1 2.3.2.7.1 1.4.3 2.1.6.6.2 1.1.5 1.7.8.4.2.7.5 1.1.8l.5.5c.1.1.2.3.2.5.1.2.1.4.1.6v.8c0 .5 0 1-.2 1.5-.1.2-.3.4-.6.4-.4 0-.7-.2-1-.5-.4-.4-.9-.7-1.4-1-.6-.4-1.3-.7-2-1-.9-.3-1.8-.5-2.8-.5-2-.1-3.9.9-5 2.5-1.2 1.7-1.8 4.2-1.8 7.4 0 1.4.1 2.9.5 4.2.3 1.1.7 2.1 1.4 3 .6.8 1.3 1.4 2.2 1.8.9.4 2 .6 3 .6s1.9-.2 2.8-.5c.7-.3 1.4-.7 2.1-1.1.6-.4 1.1-.8 1.5-1.1.3-.3.6-.4.9-.5.1 0 .2 0 .3.1.1.1.2.2.2.4.1.2.1.4.1.7-.1.7-.1 1.1-.2 1.4zM136.6 60c0 .1 0 .3-.1.4-.1.1-.2.2-.4.3-.2.1-.5.1-.7.2-.4 0-.7.1-1.1.1-.4 0-.8 0-1.1-.1-.2 0-.5-.1-.7-.2-.1-.1-.3-.1-.4-.3-.1-.1-.1-.2-.1-.4V45.4c0-1.2-.1-2.3-.3-3.5-.2-.8-.5-1.6-1-2.2-.4-.6-1-1.1-1.7-1.5-.7-.3-1.5-.5-2.4-.5-1.2 0-2.5.5-3.4 1.2-1.4 1-2.6 2.2-3.6 3.6V60c0 .1 0 .3-.1.4-.1.1-.2.2-.4.3-.2.1-.5.1-.7.2-.4 0-.8.1-1.1.1-.4 0-.7 0-1.1-.1-.2 0-.5-.1-.7-.2-.1 0-.3-.1-.4-.3-.1-.1-.1-.2-.1-.4V35c0-.1 0-.3.1-.4l.3-.3c.2-.1.4-.2.6-.2.7-.1 1.3-.1 2 0 .3 0 .5 0 .8.2l.3.3c.1.1.1.2.1.4v3.3c1.2-1.4 2.6-2.6 4.2-3.5 1.3-.7 2.8-1.1 4.2-1.1 1.5 0 2.9.2 4.2.8 1.1.5 2 1.3 2.8 2.3.7 1 1.2 2.1 1.5 3.3.3 1.5.5 3 .5 4.6V60zm-28.5-13.6c.1.6-.1 1.1-.6 1.5-.3.3-.8.5-1.2.5H89.8c0 1.3.1 2.5.4 3.8.2 1 .7 2 1.4 2.9.7.8 1.6 1.5 2.5 1.8 1.2.5 2.5.7 3.8.6 1.1 0 2.1-.1 3.2-.3.8-.2 1.6-.4 2.4-.7.7-.2 1.2-.5 1.7-.7.3-.2.7-.3 1-.3.1 0 .2 0 .3.1.1.1.2.2.2.3.1.2.1.4.1.5v1.4c0 .2 0 .3-.1.5 0 .1-.1.3-.1.4-.1.1-.2.2-.2.3-.3.2-.6.4-.9.5-.6.3-1.3.5-1.9.7-.9.2-1.8.4-2.8.6-1.1.2-2.2.3-3.3.3-1.9 0-3.7-.3-5.5-.9-1.5-.5-2.8-1.4-3.9-2.6-1.1-1.2-1.9-2.7-2.4-4.2-.6-1.9-.8-4-.8-6s.3-3.9.8-5.8c.5-1.6 1.3-3.1 2.4-4.4 1-1.2 2.3-2.1 3.8-2.8 1.6-.7 3.3-1 5-1 1.7 0 3.4.3 5 1 1.3.6 2.5 1.5 3.4 2.5.9 1.1 1.6 2.4 2 3.8.4 1.5.6 3.1.6 4.6l.2 1.1zm-4.6-1.3c.2-2-.4-4.1-1.6-5.7-1.3-1.4-3.1-2.1-5-2-1 0-2.1.2-3 .6-.8.4-1.6 1-2.2 1.7-.6.7-1 1.6-1.3 2.5-.3.9-.5 1.9-.5 2.9h13.6zm-30.2-8.5v1c0 .2 0 .4-.1.7 0 .1-.1.3-.2.4-.1.1-.2.1-.3.1-.2 0-.4 0-.5-.1l-.8-.2c-.3-.1-.6-.2-.9-.2-.5-.3-.8-.3-1.2-.3-.5 0-.9.1-1.4.3-.5.2-1 .5-1.4.9-.6.5-1.1 1.1-1.5 1.7-.5.7-1.1 1.6-1.8 2.6V60c0 .1 0 .3-.1.4-.1.1-.2.2-.4.3-.2.1-.5.1-.7.2-.4 0-.8.1-1.1.1-.4 0-.7 0-1.1-.1-.2 0-.5-.1-.7-.2-.1 0-.3-.1-.4-.3-.1-.1-.1-.2-.1-.4V35c0-.1 0-.3.1-.4l.3-.3c.2-.1.4-.2.6-.2h2c.2 0 .4.1.6.2l.3.3c.1.1.1.2.1.4v3.7c.6-.9 1.2-1.7 1.9-2.5.5-.6 1.1-1.1 1.7-1.5.5-.3 1-.6 1.6-.8.5-.1 1.1-.2 1.6-.2h.8c.3 0 .7.1 1 .2.3.1.6.1.9.2l.6.3c.1.1.2.2.2.3 0 .1.1.2.1.3 0 .2.1.4.1.6.2.2.2.6.2 1zM48.8 60.1c0 .2-.1.4-.2.5-.2.1-.4.2-.6.2-.4.1-.8.1-1.1.1-.4 0-.8 0-1.2-.1-.2 0-.4-.1-.6-.2-.1-.1-.2-.3-.2-.5v-2.5c-1 1.1-2.3 2.1-3.7 2.8-1.3.7-2.8 1-4.3 1-1.2 0-2.4-.2-3.6-.5-1-.3-1.9-.8-2.7-1.5-.8-.7-1.4-1.5-1.8-2.5-.4-1-.6-2.1-.6-3.2 0-1.3.3-2.5.9-3.7.6-1.1 1.5-2 2.5-2.6 1.2-.7 2.6-1.3 4-1.5 1.7-.3 3.5-.5 5.2-.5h3.4v-2c0-.9-.1-1.7-.3-2.6-.2-.7-.5-1.3-1-1.8s-1.1-.9-1.8-1.1c-.9-.3-1.8-.4-2.7-.4-1 0-2 .1-3 .4-.8.2-1.6.5-2.4.9-.7.3-1.2.6-1.7.9-.3.2-.6.3-1 .4-.1 0-.3 0-.4-.1l-.3-.3c-.1-.2-.2-.4-.2-.6 0-.3-.1-.5-.1-.8 0-.4 0-.7.1-1.1.1-.3.2-.6.5-.8.4-.3.8-.6 1.3-.8.7-.4 1.4-.7 2.1-.9.9-.3 1.7-.5 2.6-.7.9-.2 1.9-.3 2.9-.3 1.6 0 3.1.2 4.6.6 1.1.3 2.2 1 3.1 1.8.8.8 1.4 1.8 1.7 2.9.4 1.3.6 2.7.5 4.1v17zm-4.6-11.4h-3.9c-1.1 0-2.2.1-3.3.3-.8.2-1.6.5-2.3 1-.6.4-1 .9-1.3 1.5-.3.6-.4 1.3-.4 2-.1 1.2.4 2.3 1.2 3.1 1 .8 2.2 1.2 3.5 1.2 1.2 0 2.3-.3 3.3-.9 1.2-.8 2.3-1.7 3.2-2.8v-5.4zM23 47.2c0 2-.2 4-.7 5.9-.4 1.6-1.1 3.1-2.1 4.4-.9 1.2-2.1 2.2-3.4 2.8-1.5.7-3 1-4.6 1-.7 0-1.4-.1-2.1-.2-.6-.2-1.3-.4-1.9-.7-.6-.3-1.2-.7-1.8-1.2-.6-.5-1.2-1-1.9-1.7V70c0 .1 0 .3-.1.4-.1.1-.2.2-.4.3-.2.1-.5.1-.7.2-.4 0-.8.1-1.1.1-.4 0-.7 0-1.1-.1-.2 0-.5-.1-.7-.2-.1-.1-.3-.2-.4-.3.1-.1 0-.3 0-.4V35c0-.1 0-.3.1-.4l.3-.3c.2-.1.4-.1.6-.2h1.9c.2 0 .4.1.6.2.1.1.3.1.4.3.1.1.1.3.1.4v3.4c.7-.7 1.4-1.4 2.2-2 .7-.5 1.4-1 2.1-1.4.7-.4 1.4-.7 2.2-.9.8-.2 1.6-.3 2.4-.3 1.6 0 3.2.3 4.6 1.1 1.3.7 2.3 1.7 3.1 2.9.8 1.3 1.4 2.8 1.8 4.3.5 1.6.7 3.3.6 5.1zm-4.7.5c0-1.2-.1-2.5-.3-3.7-.2-1.1-.5-2.2-1-3.2-.4-.9-1.1-1.7-1.9-2.2-.9-.6-1.9-.9-3-.8-.6 0-1.2.1-1.8.3-.6.2-1.2.5-1.8.8-.7.5-1.3 1-1.9 1.6-.7.7-1.4 1.5-2.1 2.3v10c1 1.3 2.3 2.5 3.6 3.5 1 .8 2.3 1.2 3.6 1.2 1.1 0 2.1-.3 3-.8.8-.6 1.5-1.3 2-2.2.5-1 .9-2 1.1-3.1.4-1.4.5-2.5.5-3.7z" class="st2"/>
</svg>
